<?xml version="1.0" encoding="iso-8859-1"?>
<!-- Generator: Adobe Illustrator 19.0.0, SVG Export Plug-In . SVG Version: 6.00 Build 0)  -->
<svg version="1.1" id="Layer_1" xmlns="http://www.w3.org/2000/svg" xmlns:xlink="http://www.w3.org/1999/xlink" x="0px" y="0px"
	 viewBox="0 0 512 512" style="enable-background:new 0 0 512 512;" xml:space="preserve">
<path style="fill:#0E4675;" d="M487.674,185.339H24.326c-6.398,0-11.584-5.187-11.584-11.584s5.186-11.584,11.584-11.584h463.348
	c6.398,0,11.584,5.187,11.584,11.584S494.072,185.339,487.674,185.339z"/>
<g>
	<path style="fill:#C6F2EA;" d="M305.728,19.362c-15.672-5.044-32.379-7.778-49.728-7.778c-89.565,0-162.172,72.607-162.172,162.172
		c0,17.349,2.735,34.056,7.778,49.728h23.167L305.728,19.362z"/>
	<path style="fill:#C6F2EA;" d="M358.729,48.272h-23.167L130.516,276.485c29.74,36.286,74.906,59.443,125.484,59.443
		c89.565,0,162.172-72.607,162.172-162.172C418.172,123.178,395.015,78.013,358.729,48.272z"/>
</g>
<rect x="237.466" y="381.428" style="fill:#0E4675;" width="37.068" height="118.988"/>
<g>
	<path style="fill:#3D7A94;" d="M256,393.846c-121.358,0-220.09-98.731-220.09-220.09c0-8.066,0.458-16.289,1.358-24.44
		c0.703-6.358,6.424-10.94,12.786-10.241c6.358,0.702,10.944,6.428,10.241,12.786c-0.807,7.31-1.217,14.678-1.217,21.896
		c0,108.583,88.34,196.923,196.923,196.923s196.923-88.34,196.923-196.923c0-7.218-0.41-14.585-1.217-21.894
		c-0.703-6.358,3.883-12.084,10.241-12.786c6.361-0.703,12.084,3.884,12.786,10.241c0.9,8.15,1.358,16.374,1.358,24.439
		C476.091,295.115,377.358,393.846,256,393.846z"/>
	<path style="fill:#3D7A94;" d="M372.249,512H135.117c-6.398,0-11.584-5.187-11.584-11.584c0-6.397,5.186-11.584,11.584-11.584
		H372.25c6.398,0,11.584,5.187,11.584,11.584C383.833,506.813,378.647,512,372.249,512z"/>
</g>
<path style="fill:#FFFFFF;" d="M101.607,223.483c6.291,19.548,16.185,37.477,28.908,53L358.729,48.272
	c-15.524-12.724-33.454-22.617-53-28.909L101.607,223.483z"/>
<path style="fill:#3D7A94;" d="M256,347.511c-95.809,0-173.756-77.947-173.756-173.756S160.191,0,256,0
	s173.756,77.947,173.756,173.756S351.809,347.511,256,347.511z M256,23.167c-83.034,0-150.588,67.553-150.588,150.588
	S172.966,324.344,256,324.344s150.588-67.553,150.588-150.588S339.034,23.167,256,23.167z"/>
<g>
</g>
<g>
</g>
<g>
</g>
<g>
</g>
<g>
</g>
<g>
</g>
<g>
</g>
<g>
</g>
<g>
</g>
<g>
</g>
<g>
</g>
<g>
</g>
<g>
</g>
<g>
</g>
<g>
</g>
</svg>
